<svg width="192" height="192" viewBox="0 0 192 192" fill="none" xmlns="http://www.w3.org/2000/svg">
  <rect width="192" height="192" rx="32" fill="url(#gradient)"/>
  <circle cx="96" cy="96" r="64" fill="white" fill-opacity="0.1"/>
  <path d="M96 64C93.2 64 90.6 64.8 88.5 66.3C86.4 67.8 84 69.9 84 73V119C84 122.1 86.4 124.2 88.5 125.7C90.6 127.2 93.2 128 96 128C98.8 128 101.4 127.2 103.5 125.7C105.6 124.2 108 122.1 108 119V73C108 69.9 105.6 67.8 103.5 66.3C101.4 64.8 98.8 64 96 64Z" fill="white"/>
  <path d="M72 96C70.9 96 70 96.9 70 98V126C70 138.7 80.3 149 93 149H99C111.7 149 122 138.7 122 126V98C122 96.9 121.1 96 120 96C118.9 96 118 96.9 118 98V126C118 136.5 109.5 145 99 145H93C82.5 145 74 136.5 74 126V98C74 96.9 73.1 96 72 96Z" fill="white"/>
  <circle cx="96" cy="96" r="8" fill="#1788D8"/>
  <defs>
    <linearGradient id="gradient" x1="0" y1="0" x2="192" y2="192" gradientUnits="userSpaceOnUse">
      <stop stop-color="#1788D8"/>
      <stop offset="1" stop-color="#2a709b"/>
    </linearGradient>
  </defs>
</svg>